<svg width="400" height="100" viewBox="0 0 400 100" fill="none" xmlns="http://www.w3.org/2000/svg">
<path d="M111.111 1.31689H133.122L176.095 60.4642V1.31689H198.115V98.6829H176.095L133.122 39.6268V98.7742L111.111 98.6829V1.31689Z" fill="#004FC5"/>
<path d="M362.712 1.31689H358.57H339.928H335.78L298.496 98.6829H321.279H377.209H400L362.712 1.31689ZM330.215 76.7241L349.248 27.6584L368.277 76.7241H330.215Z" fill="#004FC5"/>
<path fill-rule="evenodd" clip-rule="evenodd" d="M250.939 98.6829H233.33H212.615V1.31689H233.33H250.939C277.828 1.31689 299.622 23.1113 299.622 49.9999C299.619 76.8885 277.825 98.6829 250.939 98.6829ZM250.939 23.313H234.591V76.7714H250.939C266.382 76.7714 277.622 65.4465 277.622 49.9999C277.619 34.5566 266.382 23.313 250.939 23.313Z" fill="#004FC5"/>
<path fill-rule="evenodd" clip-rule="evenodd" d="M0 50C0 77.614 22.386 100 50 100C77.6173 100 99.9967 77.614 99.9967 50C99.9967 22.386 77.614 0 50 0C22.386 0 0 22.386 0 50ZM49.998 78C65.462 78 77.998 65.464 77.998 50C77.998 34.536 65.462 22 49.998 22C34.5341 22 21.998 34.536 21.998 50C21.998 65.464 34.5341 78 49.998 78Z" fill="#004FC5"/>
</svg>
